<svg width="778" height="889" viewBox="0 0 778 889" fill="none" xmlns="http://www.w3.org/2000/svg">
<path d="M93.7273 201.836L117.591 249.73L110.626 256.224L76.2646 235.174L94.3744 271.376L87.5137 277.874L41.841 250.212L48.374 244.121L84.6411 267.432L64.5716 229.019L71.4826 222.576L107.653 245.674L87.1403 207.977L93.7273 201.836Z" fill="white"/>
<path d="M158.485 223.396C154.325 225.736 149.943 226.93 145.34 226.979C140.756 226.96 136.457 225.792 132.444 223.476C128.45 221.092 125.223 217.713 122.762 213.338C120.301 208.963 119.101 204.471 119.163 199.863C119.268 195.231 120.514 190.972 122.903 187.088C125.311 183.137 128.595 179.991 132.755 177.651C136.959 175.286 141.353 174.113 145.937 174.132C150.54 174.084 154.826 175.23 158.796 177.571C162.767 179.911 165.982 183.269 168.443 187.644C170.904 192.019 172.115 196.532 172.078 201.183C172.016 205.792 170.781 210.072 168.374 214.023C165.985 217.907 162.689 221.032 158.485 223.396ZM154.903 217.026C157.862 215.362 160.126 213.213 161.695 210.581C163.239 207.905 163.955 204.962 163.842 201.75C163.749 198.472 162.773 195.181 160.915 191.878C159.057 188.575 156.764 186.054 154.035 184.314C151.349 182.55 148.474 181.655 145.41 181.628C142.346 181.601 139.334 182.42 136.374 184.085C133.415 185.749 131.151 187.898 129.582 190.53C128.014 193.163 127.265 196.097 127.334 199.333C127.447 202.544 128.432 205.801 130.289 209.104C132.147 212.407 134.431 214.962 137.141 216.769C139.87 218.508 142.779 219.413 145.867 219.483C148.931 219.51 151.943 218.691 154.903 217.026Z" fill="white"/>
<path d="M217.767 197.514L200.099 181.752L194.003 183.772L200.46 203.252L192.472 205.9L176.329 157.202L193.145 151.627C196.882 150.388 200.252 149.997 203.255 150.453C206.305 150.894 208.824 152.003 210.813 153.78C212.849 155.542 214.316 157.778 215.214 160.487C216.267 163.664 216.293 166.87 215.291 170.105C214.321 173.278 212.076 175.967 208.555 178.171L227.297 194.355L217.767 197.514ZM191.889 177.396L200.718 174.469C203.707 173.478 205.702 171.988 206.701 169.997C207.747 167.991 207.852 165.727 207.016 163.205C206.18 160.682 204.782 158.968 202.822 158.062C200.848 157.11 198.342 157.137 195.306 158.143L186.477 161.07L191.889 177.396Z" fill="white"/>
<path d="M247.751 183.491L264.846 180.539L266.001 187.231L240.614 191.615L231.884 141.059L240.177 139.627L247.751 183.491Z" fill="white"/>
<path d="M292.736 134.274C298.198 134.212 302.983 135.215 307.092 137.285C311.249 139.304 314.457 142.27 316.717 146.181C319.025 150.043 320.209 154.582 320.268 159.798C320.328 165.014 319.248 169.554 317.028 173.418C314.858 177.282 311.717 180.271 307.607 182.385C303.546 184.449 298.784 185.513 293.322 185.575L276.566 185.767L275.98 134.466L292.736 134.274ZM293.244 178.71C299.247 178.642 303.83 176.965 306.991 173.681C310.153 170.397 311.7 165.802 311.632 159.897C311.564 153.942 309.912 149.31 306.675 146.001C303.438 142.691 298.818 141.07 292.814 141.139L284.473 141.234L284.903 178.806L293.244 178.71Z" fill="white"/>
<path d="M388.017 187.718L367.246 182.237L361.003 191.431L352.509 189.189L383.391 144.202L392.812 146.688L397.476 201.055L388.911 198.795L388.017 187.718ZM387.484 180.477L385.502 155.295L371.282 176.202L387.484 180.477Z" fill="white"/>
<path d="M432.109 216.695L430.128 193.101L424.314 190.374L415.601 208.954L407.981 205.381L429.764 158.931L445.804 166.453C449.369 168.124 452.084 170.158 453.949 172.555C455.86 174.973 456.925 177.511 457.146 180.169C457.412 182.848 456.938 185.48 455.727 188.064C454.306 191.094 452.119 193.439 449.167 195.098C446.28 196.734 442.801 197.141 438.729 196.319L441.198 220.958L432.109 216.695ZM427.166 184.292L435.587 188.241C438.438 189.578 440.912 189.868 443.006 189.111C445.145 188.375 446.779 186.804 447.907 184.397C449.035 181.991 449.2 179.786 448.401 177.78C447.623 175.731 445.786 174.026 442.889 172.668L434.468 168.719L427.166 184.292Z" fill="white"/>
<path d="M509.223 204.484L505.328 210.137L494.082 202.389L468.87 238.984L461.94 234.209L487.152 197.615L475.846 189.825L479.741 184.172L509.223 204.484Z" fill="white"/>
<path d="M501.606 266.74C499.119 264.356 497.29 261.785 496.117 259.025C494.979 256.23 494.607 253.488 495.003 250.8C495.398 248.111 496.617 245.701 498.66 243.569L505.162 249.801C503.772 251.536 503.134 253.446 503.248 255.532C503.397 257.652 504.485 259.683 506.51 261.624C508.606 263.633 510.717 264.702 512.843 264.831C515.003 264.924 516.849 264.171 518.382 262.572C519.573 261.329 520.171 259.959 520.174 258.462C520.212 256.999 519.885 255.527 519.192 254.045C518.535 252.597 517.486 250.705 516.044 248.369C514.241 245.414 512.882 242.884 511.967 240.781C511.122 238.675 510.83 236.419 511.092 234.012C511.354 231.605 512.592 229.246 514.805 226.937C516.849 224.805 519.169 223.451 521.767 222.873C524.366 222.296 527.033 222.501 529.768 223.487C532.504 224.473 535.134 226.175 537.656 228.592C541.245 232.031 543.307 235.747 543.845 239.738C544.452 243.728 543.381 247.405 540.633 250.77L533.918 244.334C535.106 242.882 535.573 241.115 535.32 239.032C535.067 236.949 533.981 234.988 532.062 233.149C530.321 231.48 528.474 230.562 526.522 230.395C524.569 230.228 522.792 230.979 521.192 232.649C520.102 233.786 519.537 235.051 519.497 236.444C519.527 237.835 519.87 239.255 520.528 240.703C521.185 242.151 522.199 244.009 523.57 246.277C525.374 249.302 526.717 251.884 527.598 254.023C528.514 256.196 528.824 258.504 528.528 260.947C528.301 263.388 527.064 265.782 524.817 268.126C523.012 270.01 520.794 271.292 518.164 271.975C515.568 272.691 512.8 272.628 509.858 271.786C506.986 270.942 504.236 269.26 501.606 266.74Z" fill="white"/>
<path d="M596.868 304.307L591.102 308.034L579.281 289.745L566.572 297.96L575.788 312.219L570.023 315.946L560.806 301.687L541.959 313.869L537.391 306.801L580.478 278.951L596.868 304.307Z" fill="white"/>
<path d="M568.286 363.885C566.445 359.481 565.768 354.99 566.255 350.413C566.806 345.862 568.465 341.728 571.232 338.011C574.063 334.321 577.794 331.508 582.426 329.572C587.057 327.636 591.658 326.966 596.228 327.563C600.816 328.205 604.901 329.938 608.482 332.761C612.127 335.611 614.87 339.239 616.711 343.643C618.571 348.093 619.225 352.593 618.674 357.144C618.187 361.721 616.551 365.846 613.765 369.517C610.98 373.188 607.271 375.992 602.64 377.928C598.008 379.864 593.385 380.543 588.77 379.966C584.2 379.369 580.093 377.646 576.448 374.796C572.867 371.972 570.147 368.335 568.286 363.885ZM575.029 361.067C576.339 364.2 578.21 366.698 580.642 368.562C583.12 370.406 585.961 371.459 589.164 371.72C592.431 372.008 595.813 371.421 599.309 369.96C602.805 368.498 605.576 366.513 607.621 364.005C609.685 361.542 610.908 358.79 611.291 355.75C611.673 352.71 611.21 349.623 609.9 346.49C608.591 343.357 606.719 340.859 604.287 338.995C601.854 337.132 599.027 336.047 595.805 335.74C592.602 335.479 589.253 336.079 585.757 337.54C582.261 339.002 579.458 340.974 577.348 343.456C575.303 345.964 574.067 348.748 573.639 351.807C573.256 354.847 573.719 357.934 575.029 361.067Z" fill="white"/>
<path d="M633.805 397.817L601.728 404.18C597.914 404.937 595.239 406.496 593.7 408.858C592.172 411.269 591.762 414.26 592.47 417.832C593.188 421.452 594.709 424.061 597.033 425.657C599.366 427.301 602.439 427.745 606.253 426.989L638.329 420.625L639.967 428.88L608.035 435.214C603.932 436.028 600.279 435.825 597.077 434.604C593.874 433.383 591.276 431.415 589.283 428.699C587.289 425.984 585.933 422.816 585.215 419.196C584.497 415.576 584.541 412.13 585.347 408.86C586.163 405.637 587.822 402.875 590.326 400.572C592.829 398.269 596.132 396.711 600.235 395.897L632.167 389.562L633.805 397.817Z" fill="white"/>
<path d="M591.417 495.712L591.387 487.296L629.609 461.84L591.297 461.977L591.267 453.562L642.644 453.378L642.674 461.793L604.527 487.25L642.765 487.113L642.795 495.528L591.417 495.712Z" fill="white"/>
<path d="M637.219 536.803C636.181 542.166 634.234 546.651 631.38 550.259C628.565 553.925 625.014 556.47 620.728 557.896C616.48 559.379 611.796 559.624 606.675 558.633C601.553 557.641 597.324 555.669 593.985 552.716C590.638 549.812 588.343 546.134 587.099 541.683C585.895 537.289 585.812 532.411 586.851 527.048L590.037 510.597L640.405 520.352L637.219 536.803ZM593.591 528.353C592.449 534.248 593.169 539.074 595.749 542.832C598.33 546.59 602.519 549.03 608.317 550.153C614.163 551.286 619.033 550.6 622.926 548.096C626.82 545.591 629.338 541.392 630.479 535.498L632.065 527.308L595.177 520.164L593.591 528.353Z" fill="white"/>
<path d="M576.112 598.171L584.125 578.24L575.776 570.905L579.053 562.755L619.866 598.974L616.231 608.015L561.705 605.904L565.009 597.685L576.112 598.171ZM583.363 598.54L608.597 599.694L589.613 582.992L583.363 598.54Z" fill="white"/>
<path d="M582.127 670.947L576.292 667.33L583.487 655.723L545.717 632.309L550.15 625.157L587.921 648.57L595.155 636.9L600.99 640.517L582.127 670.947Z" fill="white"/>
<path d="M565.461 692.353L525.373 660.336L530.625 653.76L570.713 685.777L565.461 692.353Z" fill="white"/>
<path d="M498.807 687.861C502.298 684.606 506.275 682.412 510.737 681.28C515.196 680.218 519.649 680.339 524.095 681.644C528.538 683.018 532.472 685.541 535.895 689.213C539.318 692.884 541.542 696.966 542.569 701.459C543.559 705.986 543.352 710.418 541.946 714.756C540.538 719.164 538.089 722.995 534.597 726.25C531.07 729.539 527.076 731.715 522.617 732.777C518.155 733.909 513.719 733.806 509.309 732.468C504.899 731.129 500.982 728.624 497.559 724.953C494.136 721.281 491.895 717.181 490.835 712.652C489.808 708.159 489.999 703.709 491.407 699.301C492.812 694.963 495.279 691.15 498.807 687.861ZM503.79 693.207C501.306 695.522 499.613 698.144 498.709 701.072C497.84 704.036 497.838 707.065 498.704 710.16C499.569 713.324 501.293 716.292 503.877 719.063C506.461 721.835 509.284 723.744 512.346 724.792C515.372 725.873 518.378 726.065 521.362 725.369C524.346 724.673 527.08 723.167 529.563 720.851C532.047 718.535 533.741 715.914 534.644 712.986C535.547 710.058 535.584 707.03 534.753 703.902C533.887 700.807 532.161 697.874 529.577 695.102C526.993 692.331 524.171 690.386 521.112 689.269C518.049 688.222 515.009 688.028 511.992 688.689C509.008 689.385 506.274 690.891 503.79 693.207Z" fill="white"/>
<path d="M434.045 734.953L441.236 730.581L482.775 750.16L462.87 717.425L470.06 713.053L496.754 756.952L489.564 761.324L448.063 741.808L467.93 774.479L460.74 778.852L434.045 734.953Z" fill="white"/>
<path d="M407.635 800.67L391.047 752.121L399.011 749.401L415.598 797.949L407.635 800.67Z" fill="white"/>
<path d="M335.506 765.119L343.769 763.525L375.888 796.346L368.63 758.728L376.893 757.134L386.626 807.581L378.363 809.176L346.258 776.427L353.502 813.972L345.239 815.567L335.506 765.119Z" fill="white"/>
<path d="M323.142 792.5C323.081 797.519 321.87 802.007 319.509 805.965C317.099 809.923 313.887 812.984 309.874 815.15C305.812 817.365 301.394 818.443 296.621 818.385C291.158 818.319 286.328 816.907 282.129 814.149C277.88 811.44 274.826 807.613 272.966 802.669L283.079 802.792C284.374 805.514 286.195 807.554 288.541 808.912C290.887 810.269 293.61 810.966 296.71 811.004C300.106 811.045 303.141 810.319 305.817 808.826C308.493 807.333 310.611 805.168 312.171 802.333C313.682 799.496 314.46 796.184 314.506 792.395C314.552 788.606 313.854 785.275 312.413 782.403C310.922 779.53 308.857 777.291 306.219 775.684C303.58 774.126 300.563 773.327 297.168 773.285C294.068 773.248 291.329 773.879 288.95 775.179C286.572 776.479 284.702 778.474 283.341 781.164L273.229 781.042C275.207 776.144 278.354 772.393 282.667 769.787C286.931 767.181 291.794 765.912 297.257 765.978C302.079 766.036 306.47 767.197 310.429 769.46C314.387 771.772 317.523 774.935 319.837 778.95C322.101 782.964 323.203 787.48 323.142 792.5Z" fill="white"/>
<path d="M256.493 762.51C258 762.745 259.185 763.452 260.047 764.633C260.908 765.813 261.222 767.157 260.987 768.664C260.752 770.172 260.044 771.356 258.864 772.218C257.683 773.08 256.339 773.393 254.832 773.158C253.373 772.931 252.213 772.227 251.351 771.047C250.489 769.866 250.176 768.522 250.411 767.015C250.646 765.508 251.354 764.323 252.534 763.461C253.714 762.599 255.034 762.282 256.493 762.51Z" fill="white"/>
</svg>
