<svg width="670" height="735" fill="none" xmlns="http://www.w3.org/2000/svg"><path d="m93.727 94.836 23.864 47.894-6.965 6.494-34.361-21.05 18.11 36.202-6.861 6.498-45.673-27.662 6.533-6.091 36.267 23.311-20.07-38.413 6.912-6.443 36.17 23.098-20.513-37.697 6.587-6.141ZM158.485 116.396c-4.16 2.34-8.542 3.534-13.145 3.583-4.584-.019-8.883-1.187-12.896-3.503-3.994-2.384-7.221-5.763-9.682-10.138-2.461-4.375-3.661-8.867-3.599-13.475.105-4.632 1.351-8.89 3.74-12.775 2.408-3.951 5.692-7.097 9.852-9.438 4.204-2.364 8.598-3.537 13.182-3.518 4.603-.048 8.889 1.098 12.859 3.439 3.971 2.34 7.186 5.698 9.647 10.073 2.461 4.375 3.672 8.888 3.635 13.54-.062 4.608-1.297 8.888-3.704 12.839-2.389 3.884-5.685 7.009-9.889 9.373Zm-3.582-6.37c2.959-1.664 5.223-3.813 6.792-6.445 1.544-2.676 2.26-5.62 2.147-8.83-.093-3.28-1.069-6.57-2.927-9.873-1.858-3.303-4.151-5.824-6.88-7.564-2.686-1.764-5.561-2.66-8.625-2.686-3.064-.027-6.076.792-9.036 2.457-2.959 1.664-5.223 3.813-6.792 6.445-1.568 2.633-2.317 5.567-2.248 8.802.113 3.212 1.098 6.47 2.955 9.772 1.858 3.303 4.142 5.858 6.852 7.665 2.729 1.739 5.638 2.644 8.726 2.714 3.064.027 6.076-.792 9.036-2.457ZM217.767 90.514l-17.668-15.763-6.096 2.021 6.457 19.48-7.988 2.648L176.329 50.2l16.816-5.574c3.737-1.239 7.107-1.63 10.11-1.174 3.05.44 5.569 1.55 7.558 3.327 2.036 1.762 3.503 3.998 4.401 6.707 1.053 3.177 1.079 6.383.077 9.618-.97 3.173-3.215 5.862-6.736 8.066l18.742 16.184-9.53 3.16Zm-25.878-20.118 8.829-2.927c2.989-.99 4.984-2.481 5.983-4.472 1.046-2.005 1.151-4.27.315-6.792-.836-2.523-2.234-4.237-4.194-5.143-1.974-.952-4.48-.925-7.516.081l-8.829 2.927 5.412 16.326ZM247.751 76.49l17.095-2.951 1.155 6.692-25.387 4.384-8.73-50.556 8.293-1.432 7.574 43.864ZM292.736 27.274c5.462-.062 10.247.941 14.356 3.01 4.157 2.02 7.365 4.986 9.625 8.897 2.308 3.862 3.492 8.4 3.551 13.617.06 5.216-1.02 9.756-3.24 13.62-2.17 3.864-5.311 6.853-9.421 8.967-4.061 2.064-8.823 3.128-14.285 3.19l-16.756.192-.586-51.301 16.756-.192Zm.508 44.436c6.003-.068 10.586-1.745 13.747-5.03 3.162-3.284 4.709-7.878 4.641-13.783-.068-5.955-1.72-10.587-4.957-13.896-3.237-3.31-7.857-4.93-13.861-4.862l-8.341.095.43 37.572 8.341-.096ZM388.017 80.718l-20.771-5.481-6.243 9.194-8.494-2.242 30.882-44.987 9.421 2.486 4.664 54.367-8.565-2.26-.894-11.077Zm-.533-7.24-1.982-25.183-14.22 20.907 16.202 4.275ZM432.109 109.695l-1.981-23.594-5.814-2.727-8.713 18.58-7.62-3.573 21.783-46.45 16.04 7.522c3.565 1.671 6.28 3.705 8.145 6.102 1.911 2.418 2.976 4.956 3.197 7.614.266 2.68-.208 5.311-1.419 7.895-1.421 3.03-3.608 5.375-6.56 7.034-2.887 1.636-6.366 2.043-10.438 1.22l2.469 24.64-9.089-4.263Zm-4.943-32.403 8.421 3.949c2.851 1.337 5.325 1.627 7.419.87 2.139-.736 3.773-2.308 4.901-4.714 1.128-2.406 1.293-4.611.494-6.617-.778-2.05-2.615-3.754-5.512-5.112l-8.421-3.949-7.302 15.573ZM509.223 97.484l-3.895 5.653-11.246-7.748-25.212 36.595-6.93-4.775 25.212-36.594-11.306-7.79 3.895-5.653 29.482 20.312ZM501.606 159.74c-2.487-2.384-4.316-4.955-5.489-7.715-1.138-2.795-1.51-5.537-1.114-8.225.395-2.689 1.614-5.099 3.657-7.231l6.502 6.232c-1.39 1.735-2.028 3.645-1.914 5.731.149 2.12 1.237 4.151 3.262 6.092 2.096 2.009 4.207 3.078 6.333 3.207 2.16.093 4.006-.66 5.539-2.259 1.191-1.243 1.789-2.613 1.792-4.11.038-1.463-.289-2.935-.982-4.417-.657-1.448-1.706-3.34-3.148-5.676-1.803-2.955-3.162-5.485-4.077-7.588-.845-2.106-1.137-4.362-.875-6.769s1.5-4.766 3.713-7.075c2.044-2.132 4.364-3.486 6.962-4.064 2.599-.577 5.266-.372 8.001.614 2.736.986 5.366 2.688 7.888 5.105 3.589 3.439 5.651 7.155 6.189 11.146.607 3.99-.464 7.667-3.212 11.032l-6.715-6.436c1.188-1.452 1.655-3.219 1.402-5.302-.253-2.083-1.339-4.044-3.258-5.883-1.741-1.669-3.588-2.587-5.54-2.754-1.953-.167-3.73.584-5.33 2.254-1.09 1.137-1.655 2.402-1.695 3.795.03 1.391.373 2.811 1.031 4.259.657 1.448 1.671 3.306 3.042 5.574 1.804 3.025 3.147 5.607 4.028 7.746.916 2.173 1.226 4.481.93 6.924-.227 2.441-1.464 4.835-3.711 7.179-1.805 1.884-4.023 3.166-6.653 3.849-2.596.716-5.364.653-8.306-.189-2.872-.844-5.622-2.526-8.252-5.046ZM596.868 197.307l-5.766 3.727-11.821-18.289-12.709 8.215 9.216 14.259-5.765 3.727-9.217-14.259-18.847 12.182-4.568-7.068 43.087-27.85 16.39 25.356ZM568.286 256.885c-1.841-4.404-2.518-8.895-2.031-13.472.551-4.551 2.21-8.685 4.977-12.402 2.831-3.69 6.562-6.503 11.194-8.439 4.631-1.936 9.232-2.606 13.802-2.009 4.588.642 8.673 2.375 12.254 5.198 3.645 2.85 6.388 6.478 8.229 10.882 1.86 4.45 2.514 8.95 1.963 13.501-.487 4.577-2.123 8.702-4.909 12.373-2.785 3.671-6.494 6.475-11.125 8.411-4.632 1.936-9.255 2.615-13.87 2.038-4.57-.597-8.677-2.32-12.322-5.17-3.581-2.824-6.301-6.461-8.162-10.911Zm6.743-2.818c1.31 3.133 3.181 5.631 5.613 7.495 2.478 1.844 5.319 2.897 8.522 3.158 3.267.288 6.649-.299 10.145-1.76 3.496-1.462 6.267-3.447 8.312-5.955 2.064-2.463 3.287-5.215 3.67-8.255.382-3.04-.081-6.127-1.391-9.26-1.309-3.133-3.181-5.631-5.613-7.495-2.433-1.863-5.26-2.948-8.482-3.255-3.203-.261-6.552.339-10.048 1.8-3.496 1.462-6.299 3.434-8.409 5.916-2.045 2.508-3.281 5.292-3.709 8.351-.383 3.04.08 6.127 1.39 9.26ZM633.805 290.817l-32.077 6.363c-3.814.757-6.489 2.316-8.028 4.678-1.528 2.411-1.938 5.402-1.23 8.974.718 3.62 2.239 6.229 4.563 7.825 2.333 1.644 5.406 2.088 9.22 1.332l32.076-6.364 1.638 8.255-31.932 6.334c-4.103.814-7.756.611-10.958-.61-3.203-1.221-5.801-3.189-7.794-5.905-1.994-2.715-3.35-5.883-4.068-9.503-.718-3.62-.674-7.066.132-10.336.816-3.223 2.475-5.985 4.979-8.288 2.503-2.303 5.806-3.861 9.909-4.675l31.932-6.335 1.638 8.255ZM591.417 388.712l-.03-8.416 38.222-25.456-38.312.137-.03-8.415 51.377-.184.03 8.415-38.147 25.457 38.238-.137.03 8.415-51.378.184ZM637.219 429.803c-1.038 5.363-2.985 9.848-5.839 13.456-2.815 3.666-6.366 6.211-10.652 7.637-4.248 1.483-8.932 1.728-14.053.737-5.122-.992-9.351-2.964-12.69-5.917-3.347-2.904-5.642-6.582-6.886-11.033-1.204-4.394-1.287-9.272-.248-14.635l3.186-16.451 50.368 9.755-3.186 16.451Zm-43.628-8.45c-1.142 5.895-.422 10.721 2.158 14.479 2.581 3.758 6.77 6.198 12.568 7.321 5.846 1.133 10.716.447 14.609-2.057 3.894-2.505 6.412-6.704 7.553-12.598l1.586-8.19-36.888-7.144-1.586 8.189ZM576.112 491.171l8.013-19.931-8.349-7.335 3.277-8.15 40.813 36.219-3.635 9.041-54.526-2.111 3.304-8.219 11.103.486Zm7.251.369 25.234 1.154-18.984-16.702-6.25 15.548ZM582.127 563.947l-5.835-3.617 7.195-11.607-37.77-23.413 4.433-7.153 37.771 23.413 7.234-11.67 5.835 3.617-18.863 30.43ZM565.461 585.353l-40.088-32.017 5.252-6.576 40.088 32.017-5.252 6.576ZM498.807 580.861c3.491-3.255 7.468-5.449 11.93-6.581 4.459-1.062 8.912-.941 13.358.364 4.443 1.374 8.377 3.897 11.8 7.569 3.423 3.671 5.647 7.754 6.674 12.246.99 4.527.783 8.959-.623 13.297-1.408 4.408-3.857 8.239-7.349 11.494-3.527 3.289-7.521 5.465-11.98 6.527-4.462 1.132-8.898 1.029-13.308-.309-4.41-1.339-8.327-3.843-11.75-7.515-3.423-3.672-5.664-7.772-6.724-12.301-1.027-4.493-.836-8.943.572-13.35 1.405-4.339 3.872-8.152 7.4-11.441Zm4.983 5.346c-2.484 2.315-4.177 4.937-5.081 7.865-.869 2.964-.871 5.993-.005 9.088.865 3.164 2.589 6.132 5.173 8.903 2.584 2.772 5.407 4.682 8.469 5.729 3.026 1.081 6.032 1.273 9.016.577s5.718-2.202 8.201-4.518c2.484-2.315 4.178-4.937 5.081-7.865.903-2.928.94-5.956.109-9.084-.866-3.095-2.592-6.028-5.176-8.8-2.584-2.771-5.406-4.716-8.465-5.833-3.063-1.047-6.103-1.241-9.12-.58-2.984.696-5.718 2.202-8.202 4.518ZM434.045 627.953l7.191-4.372 41.539 19.579-19.905-32.735 7.19-4.372 26.694 43.899-7.19 4.372-41.501-19.516 19.867 32.672-7.19 4.372-26.695-43.899ZM407.635 693.67l-16.588-48.549 7.964-2.72 16.587 48.548-7.963 2.721ZM335.506 658.119l8.263-1.594 32.119 32.821-7.258-37.618 8.263-1.594 9.733 50.447-8.263 1.595-32.105-32.749 7.244 37.545-8.263 1.595-9.733-50.448ZM323.142 685.5c-.061 5.019-1.272 9.507-3.633 13.465-2.41 3.958-5.622 7.019-9.635 9.185-4.062 2.215-8.48 3.293-13.253 3.235-5.463-.066-10.293-1.478-14.492-4.236-4.249-2.709-7.303-6.536-9.163-11.48l10.113.123c1.295 2.722 3.116 4.762 5.462 6.12 2.346 1.357 5.069 2.054 8.169 2.092 3.396.041 6.431-.685 9.107-2.178 2.676-1.493 4.794-3.658 6.354-6.493 1.511-2.837 2.289-6.149 2.335-9.938.046-3.789-.652-7.12-2.093-9.992-1.491-2.873-3.556-5.112-6.194-6.719-2.639-1.558-5.656-2.357-9.051-2.399-3.1-.037-5.839.594-8.218 1.894-2.378 1.3-4.248 3.295-5.609 5.985l-10.112-.122c1.978-4.898 5.125-8.649 9.438-11.255 4.264-2.606 9.127-3.875 14.59-3.809 4.822.058 9.213 1.219 13.172 3.482 3.958 2.312 7.094 5.475 9.408 9.49 2.264 4.014 3.366 8.53 3.305 13.55ZM256.493 655.509c1.507.235 2.692.943 3.554 2.124.861 1.18 1.175 2.524.94 4.031-.235 1.508-.943 2.692-2.123 3.554-1.181.862-2.525 1.175-4.032.94-1.459-.227-2.619-.931-3.481-2.112-.862-1.18-1.175-2.524-.94-4.031.235-1.507.943-2.692 2.123-3.554 1.18-.862 2.5-1.179 3.959-.952Z" fill="#fff"/></svg>